<svg width="1450" height="179" viewBox="0 0 1450 179" fill="none" xmlns="http://www.w3.org/2000/svg">
<g filter="url(#filter0_d_1_4320)">
<path d="M381.485 154.243L318.846 91.4524L256.208 28.6623C252.779 29.0284 250.96 31.4958 250.479 32.6837C250.316 52.1197 250.058 86.6064 250.223 92.5095C250.388 98.4126 245.356 98.9187 242.819 98.4339L132.429 97.9614C127.781 99.1254 127.616 102.585 127.522 105.709C127.429 108.832 127.453 149.976 127.498 165.119C127.755 167.584 126.329 172.347 118.568 171.682C110.807 171.016 102.163 171.242 98.8108 171.438C96.9573 171.476 93.238 170.264 93.1887 165.106C93.1394 159.948 93.2285 63.3853 93.2703 17.8568C93.2098 14.485 91.3975 8.03685 84.6308 9.21734C80.9399 10.0678 79.3868 11.9364 79.0716 12.7644L44.5983 47.2378C43.5535 48.0458 41.5709 50.573 41.9982 54.217C42.4255 57.8611 42.1908 93.5938 42.02 111.005C42.0052 114.446 40.6709 118.724 35.4319 119.416L19.7243 119.349C18.4553 119.264 15.2021 119.329 15.2306 112.691L15.3006 96.2694C15.3844 95.2385 14.7898 93.2682 11.7419 93.636L1.99754 93.636M1448 100.501L725.148 100.498C721.911 100.484 720.636 98.0989 720.403 96.9079L720.78 8.85023C720.993 3.71036 717.554 2.66445 715.808 2.784L650.923 2.50641C649.399 2.69028 648.853 4.16347 648.771 4.87712L648.068 168.951C648.246 171.807 646.386 172.672 645.433 172.747L576.891 172.454C574.986 172.636 574.04 171.252 573.805 170.537L574.118 97.4723C574.517 93.2852 571.443 92.3834 569.856 92.456L487.035 92.1014C482.275 92.081 480.578 90.2049 478.345 88.0195C476.112 85.8341 410.649 19.8509 400.18 8.90918C398.657 6.95491 394.326 4.51186 389.196 10.3736C384.066 16.2353 377.681 22.0675 375.13 24.2509C373.768 25.5083 371.929 28.9609 375.471 32.7115C379.012 36.462 453.949 110.254 485.553 143.027C487.847 145.498 491.013 151.401 485.319 155.243C482.07 157.19 436.076 156.734 435.274 156.356L386.531 155.426C385.218 155.568 382.037 155.122 379.818 152.201" stroke="#9F3030" stroke-opacity="0.6" stroke-width="4" shape-rendering="crispEdges"/>
</g>
<defs>
<filter id="filter0_d_1_4320" x="-0.00244141" y="0.505859" width="1450" height="178.242" filterUnits="userSpaceOnUse" color-interpolation-filters="sRGB">
<feFlood flood-opacity="0" result="BackgroundImageFix"/>
<feColorMatrix in="SourceAlpha" type="matrix" values="0 0 0 0 0 0 0 0 0 0 0 0 0 0 0 0 0 0 127 0" result="hardAlpha"/>
<feOffset dy="2"/>
<feGaussianBlur stdDeviation="1"/>
<feComposite in2="hardAlpha" operator="out"/>
<feColorMatrix type="matrix" values="0 0 0 0 0 0 0 0 0 0 0 0 0 0 0 0 0 0 0.25 0"/>
<feBlend mode="normal" in2="BackgroundImageFix" result="effect1_dropShadow_1_4320"/>
<feBlend mode="normal" in="SourceGraphic" in2="effect1_dropShadow_1_4320" result="shape"/>
</filter>
</defs>
</svg>
