<svg width="1450" height="216" viewBox="0 0 1450 216" fill="none" xmlns="http://www.w3.org/2000/svg">
<g filter="url(#filter0_d_1_4306)">
<path d="M2.00002 93L109.763 93.0086C112.855 92.4178 118.989 93.0353 118.788 100.231C118.587 107.426 118.906 149.464 119.106 173.155C119.692 174.603 121.91 177.611 126.089 178.058L202.436 101.526L278.783 24.9938M1447.21 86.564L709.839 90.5385C705.893 90.5551 692.195 93.4618 691.911 94.9136L692.379 202.251C692.638 208.516 688.447 209.791 686.319 209.645L607.227 209.977C605.37 209.753 604.704 207.957 604.603 207.087L603.731 7.09071C603.948 3.6085 601.681 2.5544 600.52 2.46258L516.97 2.81368C514.649 2.59136 513.496 4.27877 513.209 5.1503L513.598 94.212C514.084 99.3158 510.337 100.415 508.403 100.326L407.449 100.75C401.646 100.775 399.579 103.062 396.857 105.725C394.135 108.389 314.346 188.813 301.586 202.149C299.729 204.531 294.45 207.508 288.196 200.363C281.942 193.217 274.16 186.108 271.05 183.446C269.389 181.913 267.147 177.704 271.464 173.133C275.781 168.562 367.118 78.6206 405.637 38.6749C408.434 35.6629 412.292 28.4679 405.352 23.7841C401.391 21.4107 345.326 21.9619 344.35 22.4226L284.934 23.5524C283.333 23.3788 279.456 23.9218 276.751 27.4831" stroke="#B14B4B" stroke-width="4"/>
</g>
<defs>
<filter id="filter0_d_1_4306" x="0" y="0.46228" width="1449.22" height="215.515" filterUnits="userSpaceOnUse" color-interpolation-filters="sRGB">
<feFlood flood-opacity="0" result="BackgroundImageFix"/>
<feColorMatrix in="SourceAlpha" type="matrix" values="0 0 0 0 0 0 0 0 0 0 0 0 0 0 0 0 0 0 127 0" result="hardAlpha"/>
<feOffset dy="2"/>
<feGaussianBlur stdDeviation="1"/>
<feComposite in2="hardAlpha" operator="out"/>
<feColorMatrix type="matrix" values="0 0 0 0 0 0 0 0 0 0 0 0 0 0 0 0 0 0 0.25 0"/>
<feBlend mode="normal" in2="BackgroundImageFix" result="effect1_dropShadow_1_4306"/>
<feBlend mode="normal" in="SourceGraphic" in2="effect1_dropShadow_1_4306" result="shape"/>
</filter>
</defs>
</svg>
