<svg width="1450" height="180" viewBox="0 0 1450 180" fill="none" xmlns="http://www.w3.org/2000/svg">
<g filter="url(#filter0_d_1_4319)">
<path d="M1075.19 154.585L1137.83 91.7941L1200.47 29.004C1203.9 29.3701 1205.72 31.8375 1206.2 33.0255C1206.36 52.4614 1206.62 86.9482 1206.46 92.8513C1206.29 98.7544 1211.32 99.2605 1213.86 98.7757L1324.25 98.303C1328.9 99.467 1329.06 102.927 1329.16 106.05C1329.25 109.174 1329.23 150.318 1329.18 165.461C1328.92 167.926 1330.35 172.689 1338.11 172.024C1345.87 171.358 1354.52 171.583 1357.87 171.779C1359.72 171.818 1363.44 170.606 1363.49 165.448C1363.54 160.29 1363.45 63.7268 1363.41 18.1983C1363.47 14.8265 1365.28 8.37827 1372.05 9.55874C1375.74 10.4092 1377.29 12.2778 1377.61 13.1058L1412.08 47.5792C1413.13 48.3872 1415.11 50.9144 1414.68 54.5584C1414.25 58.2025 1414.49 93.9354 1414.66 111.346C1414.67 114.788 1416.01 119.066 1421.25 119.757L1436.95 119.69C1438.22 119.605 1441.48 119.671 1441.45 113.033L1441.38 96.6109C1441.29 95.5799 1441.89 93.6099 1444.94 93.9776L1448 93.9777M2 100.841L731.531 100.84C734.768 100.826 736.043 98.4409 736.276 97.2499L735.899 9.19244C735.686 4.05256 739.125 3.00666 740.871 3.12621L805.756 2.84854C807.28 3.03241 807.826 4.50565 807.909 5.21929L808.611 169.293C808.433 172.149 810.293 173.014 811.245 173.089L879.788 172.796C881.693 172.978 882.639 171.594 882.874 170.879L882.561 97.8142C882.162 93.6271 885.236 92.7254 886.823 92.7979L969.644 92.4434C974.404 92.423 976.101 90.5468 978.334 88.3614C980.567 86.176 1046.03 20.1927 1056.5 9.25095C1058.02 7.29669 1062.35 4.85364 1067.48 10.7154C1072.61 16.5771 1079 22.4092 1081.55 24.5926C1082.91 25.85 1084.75 29.3026 1081.21 33.0532C1077.67 36.8037 1002.73 110.596 971.126 143.369C968.832 145.84 965.666 151.743 971.36 155.585C974.608 157.532 1020.6 157.076 1021.4 156.698L1070.15 155.767C1071.46 155.91 1074.64 155.464 1076.86 152.542" stroke="#9F3030" stroke-opacity="0.6" stroke-width="4" shape-rendering="crispEdges"/>
</g>
<defs>
<filter id="filter0_d_1_4319" x="0" y="0.848145" width="1450" height="178.241" filterUnits="userSpaceOnUse" color-interpolation-filters="sRGB">
<feFlood flood-opacity="0" result="BackgroundImageFix"/>
<feColorMatrix in="SourceAlpha" type="matrix" values="0 0 0 0 0 0 0 0 0 0 0 0 0 0 0 0 0 0 127 0" result="hardAlpha"/>
<feOffset dy="2"/>
<feGaussianBlur stdDeviation="1"/>
<feComposite in2="hardAlpha" operator="out"/>
<feColorMatrix type="matrix" values="0 0 0 0 0 0 0 0 0 0 0 0 0 0 0 0 0 0 0.25 0"/>
<feBlend mode="normal" in2="BackgroundImageFix" result="effect1_dropShadow_1_4319"/>
<feBlend mode="normal" in="SourceGraphic" in2="effect1_dropShadow_1_4319" result="shape"/>
</filter>
</defs>
</svg>
