<svg width="87" height="51" viewBox="0 0 87 51" fill="none" xmlns="http://www.w3.org/2000/svg">
<path fill-rule="evenodd" clip-rule="evenodd" d="M0 0L43.3013 51L86.6025 7.62939e-06L73.2849 5.72205e-06C73.2958 0.332001 73.3013 0.665361 73.3013 1C73.3013 17.5685 59.8698 31 43.3013 31C26.7327 31 13.3013 17.5685 13.3013 1C13.3013 0.665359 13.3068 0.331999 13.3176 1.90735e-06L0 0Z" fill="#143F71"/>
<path d="M57.918 9.57747V0.718018H59.8598V9.57747H57.918ZM59.617 9.57747V7.92694H63.4885V9.57747H59.617ZM59.617 5.90019V4.24966H63.2094V5.90019H59.617ZM59.617 2.36855V0.718018H63.4036V2.36855H59.617Z" fill="#21509E"/>
<path d="M52.2763 9.80821C51.4753 9.80821 50.7875 9.67067 50.2131 9.39558C49.6386 9.1124 49.1694 8.74427 48.8053 8.29118C48.4412 7.83001 48.1702 7.33647 47.9922 6.81056C47.8223 6.27657 47.7373 5.75875 47.7373 5.25712V4.99013C47.7373 4.43995 47.8263 3.89786 48.0043 3.36387C48.1823 2.82178 48.4533 2.33229 48.8174 1.89538C49.1896 1.45848 49.6548 1.11057 50.2131 0.851668C50.7795 0.58467 51.4469 0.451172 52.2156 0.451172C53.0166 0.451172 53.7245 0.600852 54.3394 0.900213C54.9543 1.19957 55.4438 1.61625 55.8079 2.15025C56.1801 2.67615 56.3985 3.2951 56.4633 4.00709H54.4608C54.4041 3.65109 54.2747 3.34769 54.0724 3.09687C53.8702 2.84606 53.6072 2.65188 53.2836 2.51433C52.968 2.37679 52.612 2.30802 52.2156 2.30802C51.8191 2.30802 51.4672 2.37679 51.1597 2.51433C50.8523 2.65188 50.5934 2.84606 50.383 3.09687C50.1807 3.34769 50.023 3.64705 49.9097 3.99495C49.8045 4.33477 49.7519 4.71504 49.7519 5.13576C49.7519 5.54839 49.8045 5.92866 49.9097 6.27657C50.023 6.61638 50.1848 6.91574 50.3951 7.17465C50.6136 7.42546 50.8806 7.61964 51.1961 7.75719C51.5117 7.88664 51.8717 7.95137 52.2763 7.95137C52.8912 7.95137 53.409 7.80169 53.8297 7.50233C54.2585 7.20297 54.5174 6.79033 54.6064 6.26443H56.5968C56.5239 6.9117 56.3055 7.50637 55.9414 8.04846C55.5854 8.58245 55.0959 9.01127 54.4729 9.3349C53.858 9.65044 53.1258 9.80821 52.2763 9.80821Z" fill="#21509E"/>
<path d="M43.1986 9.80821C42.3976 9.80821 41.722 9.6828 41.1719 9.43199C40.6217 9.17308 40.205 8.82518 39.9218 8.38827C39.6387 7.94328 39.4971 7.43356 39.4971 6.85911H41.4267C41.4267 7.08565 41.4874 7.29601 41.6088 7.49019C41.7382 7.68437 41.9324 7.84214 42.1913 7.9635C42.4502 8.07678 42.786 8.13341 43.1986 8.13341C43.5708 8.13341 43.8823 8.08487 44.1331 7.98778C44.3839 7.89069 44.5741 7.75719 44.7035 7.58728C44.833 7.40928 44.8977 7.20701 44.8977 6.98047C44.8977 6.69729 44.7763 6.47479 44.5336 6.31298C44.2909 6.14307 43.8985 6.03384 43.3564 5.9853L42.6889 5.92462C41.807 5.8518 41.1031 5.57671 40.5772 5.09935C40.0513 4.62199 39.7883 3.99091 39.7883 3.2061C39.7883 2.63974 39.9218 2.15025 40.1888 1.73761C40.4639 1.32498 40.8442 1.00944 41.3296 0.790986C41.8151 0.564443 42.3895 0.451172 43.053 0.451172C43.7488 0.451172 44.3435 0.572534 44.837 0.815259C45.3386 1.04989 45.723 1.38566 45.99 1.82257C46.257 2.25138 46.3905 2.75706 46.3905 3.3396H44.4487C44.4487 3.12115 44.3961 2.92292 44.2909 2.74492C44.1857 2.55883 44.0279 2.40915 43.8176 2.29588C43.6153 2.18261 43.3604 2.12597 43.053 2.12597C42.7617 2.12597 42.5149 2.17452 42.3127 2.27161C42.1185 2.3687 41.9729 2.5022 41.8758 2.6721C41.7787 2.83392 41.7301 3.01192 41.7301 3.2061C41.7301 3.45691 41.8191 3.67537 41.9971 3.86145C42.1751 4.04754 42.4664 4.15677 42.8709 4.18913L43.5506 4.24982C44.1978 4.30645 44.7682 4.44804 45.2618 4.67458C45.7553 4.89304 46.1396 5.19644 46.4147 5.5848C46.6979 5.96507 46.8395 6.43029 46.8395 6.98047C46.8395 7.54683 46.6898 8.04441 46.3905 8.47323C46.0992 8.89395 45.6825 9.22163 45.1404 9.45626C44.5983 9.6909 43.9511 9.80821 43.1986 9.80821Z" fill="#21509E"/>
<path d="M32.9697 9.57747V0.718018H34.9115V9.57747H32.9697ZM34.6688 9.57747V7.92694H38.5403V9.57747H34.6688ZM34.6688 5.90019V4.24966H38.2611V5.90019H34.6688ZM34.6688 2.36855V0.718018H38.4553V2.36855H34.6688Z" fill="#21509E"/>
<path d="M25.2359 9.62608V7.76924H26.8864C27.2991 7.76924 27.6712 7.70855 28.003 7.58719C28.3347 7.45774 28.6179 7.27974 28.8525 7.0532C29.0871 6.81856 29.2651 6.53943 29.3865 6.2158C29.5079 5.88407 29.5685 5.51999 29.5685 5.12354C29.5685 4.7109 29.5079 4.34277 29.3865 4.01914C29.2651 3.6955 29.0871 3.42042 28.8525 3.19387C28.6179 2.96733 28.3347 2.79742 28.003 2.68415C27.6712 2.56279 27.2991 2.50211 26.8864 2.50211H25.2359V0.645264H26.7772C27.5782 0.645264 28.2781 0.762581 28.8768 0.997215C29.4755 1.23185 29.9771 1.55144 30.3817 1.95598C30.7862 2.36052 31.0856 2.82574 31.2797 3.35164C31.482 3.86946 31.5832 4.41559 31.5832 4.99004V5.25703C31.5832 5.79103 31.482 6.32098 31.2797 6.84688C31.0856 7.36469 30.7862 7.83396 30.3817 8.25469C29.9771 8.66732 29.4755 8.99904 28.8768 9.24986C28.2781 9.50067 27.5782 9.62608 26.7772 9.62608H25.2359ZM23.4883 9.62608V0.645264H25.4786V9.62608H23.4883Z" fill="#21509E"/>
</svg>
