<svg width="87" height="51" viewBox="0 0 87 51" fill="none" xmlns="http://www.w3.org/2000/svg">
<path fill-rule="evenodd" clip-rule="evenodd" d="M86.6016 51L43.3003 3.84388e-06L-0.000984192 51L13.3166 51C13.3058 50.668 13.3003 50.3346 13.3003 50C13.3003 33.4315 26.7317 20 43.3003 20C59.8688 20 73.3003 33.4315 73.3003 50C73.3003 50.3346 73.2948 50.668 73.2839 51L86.6016 51Z" fill="#21509E"/>
<path d="M59.6494 50.3721V37.3906H62.4947V50.3721H59.6494ZM62.139 50.3721V47.9537H67.8118V50.3721H62.139ZM62.139 44.9839V42.5654H67.4027V44.9839H62.139ZM62.139 39.8091V37.3906H67.6873V39.8091H62.139Z" fill="#143F71"/>
<path d="M50.0931 50.4608V48.1846H53.134C53.6793 48.1846 54.0883 48.0423 54.361 47.7578C54.6337 47.4733 54.77 47.0702 54.77 46.5486C54.77 46.0269 54.6337 45.6298 54.361 45.3571C54.0883 45.0726 53.6793 44.9303 53.134 44.9303H50.0931V43.1698H52.9917C53.8927 43.1698 54.693 43.2825 55.3924 43.5077C56.0919 43.7211 56.6431 44.0708 57.0462 44.5569C57.4493 45.043 57.6508 45.7009 57.6508 46.5308V46.7797C57.6508 47.5503 57.473 48.2142 57.1174 48.7714C56.7617 49.3168 56.2401 49.7376 55.5525 50.034C54.8649 50.3185 54.0113 50.4608 52.9917 50.4608H50.0931ZM47.6035 50.4608V37.2837H50.4488V50.4608H47.6035ZM50.0931 44.468V42.7253H52.6539C53.2111 42.7253 53.6141 42.583 53.8631 42.2985C54.1121 42.0139 54.2365 41.6346 54.2365 41.1604C54.2365 40.6624 54.1121 40.2712 53.8631 39.9867C53.6141 39.7022 53.2111 39.5599 52.6539 39.5599H50.0931V37.2837H52.476C53.9698 37.2837 55.1138 37.5979 55.9081 38.2262C56.7143 38.8545 57.1174 39.7496 57.1174 40.9114V41.1781C57.1174 41.9843 56.9099 42.6304 56.495 43.1165C56.0919 43.6025 55.5406 43.9523 54.8411 44.1657C54.1535 44.3672 53.3652 44.468 52.476 44.468H50.0931Z" fill="#143F71"/>
<path d="M38.7252 50.7106C37.5515 50.7106 36.526 50.5091 35.6487 50.106C34.7833 49.691 34.066 49.1516 33.497 48.4877C32.9279 47.812 32.5011 47.0829 32.2166 46.3004C31.944 45.518 31.8076 44.7652 31.8076 44.042V43.6508C31.8076 42.8446 31.9499 42.0503 32.2344 41.2679C32.5308 40.4736 32.9694 39.7563 33.5503 39.1162C34.1312 38.476 34.8544 37.9662 35.7199 37.5868C36.5853 37.1956 37.5871 37 38.7252 37C39.8633 37 40.865 37.1956 41.7305 37.5868C42.5959 37.9662 43.3191 38.476 43.9 39.1162C44.4809 39.7563 44.9195 40.4736 45.2159 41.2679C45.5123 42.0503 45.6605 42.8446 45.6605 43.6508V44.042C45.6605 44.7652 45.5182 45.518 45.2337 46.3004C44.9492 47.0829 44.5224 47.812 43.9533 48.4877C43.3843 49.1516 42.6611 49.691 41.7838 50.106C40.9184 50.5091 39.8988 50.7106 38.7252 50.7106ZM38.7252 47.9898C39.3416 47.9898 39.8929 47.8831 40.379 47.6697C40.8769 47.4563 41.2977 47.16 41.6415 46.7806C41.9972 46.4012 42.264 45.9626 42.4418 45.4647C42.6196 44.9667 42.7085 44.4332 42.7085 43.8642C42.7085 43.2596 42.6137 42.7083 42.424 42.2104C42.2462 41.7006 41.9794 41.262 41.6238 40.8945C41.28 40.5151 40.865 40.2246 40.379 40.0231C39.8929 39.8216 39.3416 39.7208 38.7252 39.7208C38.1087 39.7208 37.5574 39.8216 37.0714 40.0231C36.5853 40.2246 36.1644 40.5151 35.8088 40.8945C35.465 41.262 35.2041 41.7006 35.0263 42.2104C34.8485 42.7083 34.7596 43.2596 34.7596 43.8642C34.7596 44.4332 34.8485 44.9667 35.0263 45.4647C35.2041 45.9626 35.465 46.4012 35.8088 46.7806C36.1644 47.16 36.5853 47.4563 37.0714 47.6697C37.5574 47.8831 38.1087 47.9898 38.7252 47.9898Z" fill="#143F71"/>
<path d="M25.4238 50.7106C24.2501 50.7106 23.2602 50.5268 22.454 50.1593C21.6479 49.78 21.0373 49.2702 20.6224 48.63C20.2075 47.978 20 47.2311 20 46.3894H22.8275C22.8275 46.7213 22.9164 47.0295 23.0942 47.3141C23.2839 47.5986 23.5684 47.8298 23.9478 48.0076C24.3272 48.1736 24.8192 48.2566 25.4238 48.2566C25.9691 48.2566 26.4255 48.1854 26.7931 48.0432C27.1606 47.9009 27.4392 47.7053 27.6289 47.4563C27.8185 47.1955 27.9134 46.8991 27.9134 46.5672C27.9134 46.1523 27.7356 45.8262 27.3799 45.5891C27.0242 45.3402 26.4493 45.1801 25.655 45.109L24.6769 45.0201C23.3847 44.9134 22.3533 44.5103 21.5827 43.8108C20.8121 43.1114 20.4268 42.1867 20.4268 41.0367C20.4268 40.2068 20.6224 39.4896 21.0136 38.885C21.4167 38.2804 21.9739 37.818 22.6852 37.4979C23.3965 37.166 24.2383 37 25.2104 37C26.2299 37 27.1013 37.1778 27.8245 37.5335C28.5595 37.8773 29.1226 38.3693 29.5138 39.0095C29.9051 39.6378 30.1007 40.3787 30.1007 41.2323H27.2554C27.2554 40.9122 27.1784 40.6218 27.0242 40.361C26.8701 40.0883 26.6389 39.869 26.3307 39.703C26.0343 39.537 25.6609 39.454 25.2104 39.454C24.7836 39.454 24.422 39.5252 24.1256 39.6674C23.8411 39.8097 23.6277 40.0053 23.4854 40.2543C23.3432 40.4914 23.272 40.7522 23.272 41.0367C23.272 41.4042 23.4025 41.7243 23.6633 41.997C23.9241 42.2697 24.3509 42.4297 24.9436 42.4771L25.9395 42.566C26.8879 42.649 27.7237 42.8565 28.4469 43.1884C29.17 43.5085 29.7332 43.9531 30.1362 44.5222C30.5512 45.0794 30.7586 45.761 30.7586 46.5672C30.7586 47.3971 30.5393 48.1262 30.1007 48.7545C29.6739 49.371 29.0633 49.8511 28.269 50.1949C27.4747 50.5387 26.5263 50.7106 25.4238 50.7106Z" fill="#143F71"/>
</svg>
